<svg xmlns="http://www.w3.org/2000/svg" viewBox="0 0 490 346" width="490" height="346" role="img" aria-label="Hasnain Aftab — Full Stack Engineer, AI Integration">
<style>
    text { font-family: ui-monospace,SFMono-Regular,Menlo,Consolas,'Courier New',monospace; font-size: 12.5px; }
    .k { fill: #3fb950; font-weight: 700; }
    .v { fill: #c9d1d9; }
    .d { fill: #8b949e; }
    .a { fill: #58a6ff; font-weight: 700; }
    
    .ln { opacity: 0; animation: in .35s ease-out forwards; }
    @keyframes in { from { opacity: 0; transform: translateX(-6px); }
                    to   { opacity: 1; transform: translateX(0); } }
    </style>
<rect x="0.5" y="0.5" width="489" height="345" rx="10" fill="#0d1117" stroke="#30363d"/>
<path d="M0.5 30 H489.5" stroke="#30363d"/>
<circle cx="18" cy="15" r="5" fill="#ff5f56"/>
<circle cx="34" cy="15" r="5" fill="#ffbd2e"/>
<circle cx="50" cy="15" r="5" fill="#27c93f"/>
<text x="245.0" y="19" text-anchor="middle" class="d" style="font-size:11px">hasnain@github: ~ — neofetch</text>
<g class="ln" style="animation-delay:0.40s"><text x="20" y="57"><tspan class="a">hasnain</tspan><tspan class="v">@</tspan><tspan class="a">github</tspan></text></g>
<g class="ln" style="animation-delay:0.52s"><text x="20" y="76" class="d">──────────────────────</text></g>
<g class="ln" style="animation-delay:0.64s"><text x="20" y="95" class="k">Role</text><text x="112" y="95" class="v">Full Stack Engineer · AI Integration</text></g>
<g class="ln" style="animation-delay:0.76s"><text x="20" y="114" class="k">Now</text><text x="112" y="114" class="v">Full Stack Web Developer @ BitzSol</text></g>
<g class="ln" style="animation-delay:0.88s"><text x="20" y="133" class="k">Freelance</text><text x="112" y="133" class="v">Intl. clients in 3 countries, since 2023</text></g>
<g class="ln" style="animation-delay:1.00s"><text x="20" y="152" class="k">Prev</text><text x="112" y="152" class="v">Frontend Developer @ CafeVista</text></g>
<g class="ln" style="animation-delay:1.12s"><text x="20" y="171" class="k">Stack</text><text x="112" y="171" class="v">Next.js · React · Node.js · TypeScript</text></g>
<g class="ln" style="animation-delay:1.24s"><text x="20" y="190" class="k">AI</text><text x="112" y="190" class="v">Claude · OpenAI · LangChain · RAG</text></g>
<g class="ln" style="animation-delay:1.36s"><text x="20" y="209" class="k">Data</text><text x="112" y="209" class="v">PostgreSQL · MongoDB · Prisma · pgvector</text></g>
<g class="ln" style="animation-delay:1.48s"><text x="20" y="228" class="k">Shipped</text><text x="112" y="228" class="v">10+ production apps at BitzSol</text></g>
<g class="ln" style="animation-delay:1.60s"><text x="20" y="247" class="k">Edu</text><text x="112" y="247" class="v">BS IT · NUML Islamabad</text></g>
<g class="ln" style="animation-delay:1.72s"><text x="20" y="266" class="k">Location</text><text x="112" y="266" class="v">Islamabad, PK · open to onsite</text></g>
<g class="ln" style="animation-delay:1.84s"><text x="20" y="285" class="k">Web</text><text x="112" y="285" class="v">has-nain.dev</text></g>
<g class="ln" style="animation-delay:1.96s"><rect x="20" y="299.6" width="22" height="14" rx="2" fill="#f85149"/><rect x="46" y="299.6" width="22" height="14" rx="2" fill="#d29922"/><rect x="72" y="299.6" width="22" height="14" rx="2" fill="#3fb950"/><rect x="98" y="299.6" width="22" height="14" rx="2" fill="#58a6ff"/><rect x="124" y="299.6" width="22" height="14" rx="2" fill="#bc8cff"/><rect x="150" y="299.6" width="22" height="14" rx="2" fill="#39c5cf"/><rect x="176" y="299.6" width="22" height="14" rx="2" fill="#c9d1d9"/></g>
</svg>