<svg xmlns="http://www.w3.org/2000/svg" viewBox="0 0 420 132" width="420" height="132" role="img" aria-label="AI4Home Warranty Portal — Multi-tenant SaaS for home builders with AI sales agents, semantic search and CRM integrations. Built with Next.js · Prisma · PostgreSQL · Claude · pgvector."><style>.t{font-family:-apple-system,BlinkMacSystemFont,'Segoe UI','Noto Sans',Helvetica,Arial,sans-serif}.m{font-family:ui-monospace,SFMono-Regular,Menlo,Consolas,'Liberation Mono',monospace}.fade{opacity:0;animation:f .6s ease-out forwards}@keyframes f{from{opacity:0;transform:translateY(5px)}to{opacity:1;transform:none}}</style><rect x=".5" y=".5" width="419" height="131" rx="10" fill="#0d1117" stroke="#3fb950"/><polygon points="362,87 396,104 362,121 328,104" fill="none" stroke="#30363d" stroke-dasharray="3 3"/><g transform="translate(362,104)"><g transform="scale(1,0)"><animateTransform attributeName="transform" type="scale" from="1 0" to="1 1" begin="0.30s" dur="0.6s" fill="freeze"/><g transform="translate(0.0,0.0)"><polygon points="0,-64.0 20.0,-54.0 0,-44.0 -20.0,-54.0" fill="#3fb950"/><polygon points="-20.0,-54.0 0,-44.0 0,10.0 -20.0,0" fill="#238636"/><polygon points="20.0,-54.0 0,-44.0 0,10.0 20.0,0" fill="#0f5323"/></g><rect x="-13" y="-44" width="2.4" height="2.4" fill="#f2cc60" opacity="0.9"/><rect x="-7" y="-44" width="2.4" height="2.4" fill="#f2cc60" opacity="0.9"/><rect x="6" y="-36" width="2.4" height="2.4" fill="#f2cc60" opacity="0.9"/><rect x="12" y="-36" width="2.4" height="2.4" fill="#f2cc60" opacity="0.9"/><rect x="-13" y="-28" width="2.4" height="2.4" fill="#f2cc60" opacity="0.9"/><rect x="-7" y="-28" width="2.4" height="2.4" fill="#f2cc60" opacity="0.9"/><rect x="6" y="-28" width="2.4" height="2.4" fill="#f2cc60" opacity="0.9"/><rect x="12" y="-28" width="2.4" height="2.4" fill="#f2cc60" opacity="0.9"/><rect x="-13" y="-20" width="2.4" height="2.4" fill="#f2cc60" opacity="0.9"/><rect x="-7" y="-20" width="2.4" height="2.4" fill="#f2cc60" opacity="0.9"/><rect x="6" y="-12" width="2.4" height="2.4" fill="#f2cc60" opacity="0.9"/><rect x="12" y="-12" width="2.4" height="2.4" fill="#f2cc60" opacity="0.9"/></g></g><g class="fade" style="animation-delay:0.10s"><text x="20" y="34" class="t" font-size="16" font-weight="600" fill="#e6edf3">AI4Home Warranty Portal</text><rect x="225.79999999999998" y="21" width="62" height="18" rx="9" fill="none" stroke="#3fb950"/><text x="256.79999999999995" y="34" text-anchor="middle" class="m" font-size="10" fill="#3fb950">featured</text><text x="20" y="54" class="m" font-size="10.5" fill="#3fb950">Next.js · Prisma · PostgreSQL · Claude · pgvector</text><text x="20" y="82" class="t" font-size="12.5" fill="#c9d1d9">Multi-tenant SaaS for home builders with AI</text><text x="20" y="100" class="t" font-size="12.5" fill="#c9d1d9">sales agents, semantic search and CRM</text><text x="20" y="118" class="t" font-size="12.5" fill="#c9d1d9">integrations</text></g></svg>