<svg xmlns="http://www.w3.org/2000/svg" viewBox="0 0 420 132" width="420" height="132" role="img" aria-label="MediTrack — Desktop pharmacy management system with an auto-updater module. Built with C# · .NET · WPF."><style>.t{font-family:-apple-system,BlinkMacSystemFont,'Segoe UI','Noto Sans',Helvetica,Arial,sans-serif}.m{font-family:ui-monospace,SFMono-Regular,Menlo,Consolas,'Liberation Mono',monospace}.fade{opacity:0;animation:f .6s ease-out forwards}@keyframes f{from{opacity:0;transform:translateY(5px)}to{opacity:1;transform:none}}</style><rect x=".5" y=".5" width="419" height="131" rx="10" fill="#ffffff" stroke="#d0d7de"/><polygon points="362,87 396,104 362,121 328,104" fill="none" stroke="#d0d7de" stroke-dasharray="3 3"/><g transform="translate(362,104)"><g transform="scale(1,0)"><animateTransform attributeName="transform" type="scale" from="1 0" to="1 1" begin="0.38s" dur="0.6s" fill="freeze"/><g transform="translate(0.0,0.0)"><polygon points="0,-34.0 20.0,-24.0 0,-14.0 -20.0,-24.0" fill="#afb8c1"/><polygon points="-20.0,-24.0 0,-14.0 0,10.0 -20.0,0" fill="#d0d7de"/><polygon points="20.0,-24.0 0,-14.0 0,10.0 20.0,0" fill="#e6eaef"/></g><rect x="6" y="-14" width="2.4" height="2.4" fill="#ffffff" opacity="0.55"/><rect x="12" y="-14" width="2.4" height="2.4" fill="#ffffff" opacity="0.55"/></g></g><g class="fade" style="animation-delay:0.18s"><text x="20" y="34" class="t" font-size="16" font-weight="600" fill="#1f2328">MediTrack</text><text x="20" y="54" class="m" font-size="10.5" fill="#656d76">C# · .NET · WPF</text><text x="20" y="82" class="t" font-size="12.5" fill="#3d444d">Desktop pharmacy management system with an</text><text x="20" y="100" class="t" font-size="12.5" fill="#3d444d">auto-updater module</text></g></svg>